<?xml version="1.0" encoding="utf-8"?>
<!-- Generator: Adobe Illustrator 19.1.0, SVG Export Plug-In . SVG Version: 6.00 Build 0)  -->
<svg version="1.1" id="Layer_1" xmlns="http://www.w3.org/2000/svg" xmlns:xlink="http://www.w3.org/1999/xlink" x="0px" y="0px"
	 viewBox="-19 266 562.1 253.7" style="enable-background:new -19 266 562.1 253.7;" xml:space="preserve">
<style type="text/css">
	.st0{fill:#FFFFFF;}
	.st1{fill:#8EC2D5;}
	.st2{fill:url(#SVGID_1_);}
	.st3{fill:#6197AF;}
	.st4{enable-background:new    ;}
	.st5{font-family:Roboto-Medium, Helvetica, sans serif;}
	.st6{font-size:16px;}
	.st7{fill:none;stroke:#D8E9EF;stroke-width:2;stroke-linecap:square;stroke-dasharray:4,4;}
	.st8{fill:url(#SVGID_2_);}
	.st9{fill:#575859;}
	.st10{fill:none;stroke:#FE9F00;stroke-width:3;stroke-linecap:square;}
	.st11{font-family:Roboto-Bold, Helvetica, sans serif;}
	.st12{font-size:12px;}
	.st13{font-family:Roboto-Light, Helvetica, sans serif;}
	.st14{font-size:10px;}
	.st15{fill:none;stroke:#979797;stroke-linecap:square;}
	.st16{fill:#FE9F00;}
	.st17{fill:#FFFFFF;stroke:#FE9F00;stroke-width:6;}
</style>
<g>
	<circle id="a" class="st0" cx="442.5" cy="331" r="14"/>
</g>
<title>Preview Timeline part 2</title>
<g transform="translate(5)">
	<path class="st1" d="M5.5,438h198l18.4,16l-18.4,16H5.5V438z"/>

		<linearGradient id="SVGID_1_" gradientUnits="userSpaceOnUse" x1="-85.167" y1="8.6875" x2="-85.6351" y2="8.6875" gradientTransform="matrix(191 0 0 32 16588 176)">
		<stop  offset="0" style="stop-color:#C2E3ED;stop-opacity:0.495"/>
		<stop  offset="1" style="stop-color:#8EC2D5"/>
	</linearGradient>
	<path class="st2" d="M379.5,438h-171l18.4,16l-18.4,16h171l20-16L379.5,438z"/>
	<path class="st3" d="M482.5,482h-256l18.4,16l-18.4,16h256l20-16L482.5,482z"/>
	<g class="st4">
		<text transform="matrix(1 0 0 1 17.5 457)" class="st0 st5 st6">Compatibility</text>
	</g>
	<path class="st7" d="M2.5,392v193"/>

		<linearGradient id="SVGID_2_" gradientUnits="userSpaceOnUse" x1="-85.0177" y1="8.3506" x2="-85.407" y2="8.3506" gradientTransform="matrix(234.69 0 0 33.375 20142.3398 220)">
		<stop  offset="0" style="stop-color:#6197AF"/>
		<stop  offset="1" style="stop-color:#C2E3ED;stop-opacity:0.495"/>
	</linearGradient>
	<path class="st8" d="M5.5,483.4l216.2-1.4l18.4,16l-18.4,16L5.5,515.4V483.4z"/>
	<g class="st4">
		<text transform="matrix(1 0 0 1 255.5 501)" class="st0 st5 st6">Building for O</text>
	</g>
	<g class="st4">
		<text transform="matrix(1 0 0 1 -21.773 381)" class="st9 st5 st6">March</text>
	</g>
	<g class="st4">
		<text transform="matrix(1 0 0 1 73.273 381)" class="st9 st5 st6">April</text>
	</g>
	<g class="st4">
		<text transform="matrix(1 0 0 1 163.773 381)" class="st9 st5 st6">May</text>
	</g>
	<g class="st4">
		<text transform="matrix(1 0 0 1 247.371 381)" class="st9 st5 st6">June</text>
	</g>
	<g class="st4">
		<text transform="matrix(1 0 0 1 341.176 381)" class="st9 st5 st6">July</text>
	</g>
	<g class="st4">
		<text transform="matrix(1 0 0 1 433.93 381)" class="st9 st5 st6">Q3</text>
	</g>
	<path class="st10" d="M-29,330.5h558 M518.2,333.5l10.8-3l-10.8-3"/>
	<g class="st4">
		<text transform="matrix(1 0 0 1 209.5 279)" class="st9 st11 st12">DP 2</text>
	</g>
	<g class="st4">
		<text transform="matrix(1 0 0 1 298.5 279)" class="st9 st11 st12">DP 3</text>
	</g>
	<g class="st4">
		<text transform="matrix(1 0 0 1 298.5 290)" class="st9 st13 st14">Final APIs</text>
	</g>
	<g class="st4">
		<text transform="matrix(1 0 0 1 382.5 279)" class="st9 st11 st12">DP 4</text>
	</g>
	<g class="st4">
		<text transform="matrix(1 0 0 1 36.5 277)" class="st9 st11 st12">DP 1</text>
	</g>
	<path class="st15" d="M222.5,303v8 M45.5,303v8 M310.5,303v8 M395.5,303v8 M443.5,303v8"/>
	<circle class="st16" cx="222.5" cy="331" r="8"/>
	<circle class="st16" cx="44.5" cy="331" r="8"/>
	<circle class="st16" cx="310.5" cy="331" r="8"/>
	<circle class="st16" cx="395.5" cy="331" r="8"/>
	<g>
		<circle id="a_1_" class="st17" cx="442.5" cy="331" r="14"/>
	</g>
	<path class="st7" d="M90.5,319v45.1 M2.5,319v44 M266.5,319v45.1 M178.5,319v45.1 M354.5,319v45.1 M442.5,349.7v14.4"/>
	<g class="st4">
		<text transform="matrix(1 0 0 1 430.5 280)" class="st9 st11 st12">Final</text>
	</g>
	<g>
		<text transform="matrix(1 0 0 1 456.5918 280)" class="st9 st11 st12"> </text>
	</g>
	<g class="st4">
		<text transform="matrix(1 0 0 1 430.5 294)" class="st9 st11 st12">Release</text>
	</g>
</g>
</svg>

