<svg width="584" height="137" viewBox="0 0 584 137" xmlns="http://www.w3.org/2000/svg" xmlns:xlink="http://www.w3.org/1999/xlink" style="background:#fff"><title>Preview Timeline</title><defs><circle id="a" cx="472.455" cy="65" r="14"/><mask id="b" x="0" y="0" width="28" height="28" fill="#fff"><use xlink:href="#a"/></mask></defs><g transform="translate(11 5)" fill="none" fill-rule="evenodd"><text font-family="Roboto-Medium, Roboto, Helvetica, sans-serif" font-size="16" font-weight="400" fill="#575859"><tspan x="7.727" y="115">March</tspan></text><text font-family="Roboto-Medium, Roboto, Helvetica, sans-serif" font-size="16" font-weight="400" fill="#575859"><tspan x="102.773" y="115">April</tspan></text><text font-family="Roboto-Medium, Roboto, Helvetica, sans-serif" font-size="16" font-weight="400" fill="#575859"><tspan x="193.273" y="115">May</tspan></text><text font-family="Roboto-Medium, Roboto, Helvetica, sans-serif" font-size="16" font-weight="400" fill="#575859"><tspan x="276.871" y="115">June</tspan></text><text font-family="Roboto-Medium, Roboto, Helvetica, sans-serif" font-size="16" font-weight="400" fill="#575859"><tspan x="370.676" y="115">July</tspan></text><text font-family="Roboto-Medium, Roboto, Helvetica, sans-serif" font-size="16" font-weight="400" fill="#575859"><tspan x="463.43" y="115">Q3</tspan></text><path d="M.5 64.5h558.004M547.704 67.5l10.8-3-10.8-3" stroke="#FE9F00" stroke-width="3" stroke-linecap="square"/><text font-family="Roboto-Bold, Roboto, Helvetica, sans-serif" font-size="12" font-weight="bold" fill="#575859"><tspan x="239" y="13">DP 2</tspan></text><text font-family="Roboto-Bold, Roboto, Helvetica, sans-serif" font-size="12" font-weight="bold" fill="#575859"><tspan x="328" y="13">DP 3</tspan></text><text font-family="Roboto-Light, Roboto, Helvetica, sans-serif" font-size="10" font-weight="300" fill="#575859"><tspan x="328" y="24">Final APIs</tspan></text><text font-family="Roboto-Bold, Roboto, Helvetica, sans-serif" font-size="12" font-weight="bold" fill="#575859"><tspan x="412" y="13">DP 4</tspan></text><text font-family="Roboto-Bold, Roboto, Helvetica, sans-serif" font-size="12" font-weight="bold" fill="#575859"><tspan x="66" y="11">DP 1</tspan></text><path d="M251.5 36.5v8M74.5 36.5v8M339.5 36.5v8M424.5 36.5v8M472.5 36.5v8" stroke="#979797" stroke-linecap="square"/><circle fill="#FE9F00" cx="252.182" cy="65" r="8"/><circle fill="#FE9F00" cx="74.182" cy="65" r="8"/><circle fill="#FE9F00" cx="340.273" cy="65" r="8"/><circle fill="#FE9F00" cx="425.273" cy="65" r="8"/><use stroke="#FE9F00" mask="url(#b)" stroke-width="6" fill="#FFF" xlink:href="#a"/><path d="M120 52.989V98.07M31.91 52.989V97M295.727 52.989V98.07M207.636 52.989V98.07M383.818 52.989V98.07M471.91 83.665V98.07" stroke="#D8E9EF" stroke-width="2" stroke-linecap="square" stroke-dasharray="4,4"/><text font-family="Roboto-Bold, Roboto, Helvetica, sans-serif" font-size="12" font-weight="bold" fill="#575859"><tspan x="460" y="14">Final</tspan> <tspan x="460" y="28">Release</tspan></text></g></svg>
